<?xml version="1.0" encoding="utf-8"?>
<!-- Generator: Adobe Illustrator 18.0.0, SVG Export Plug-In . SVG Version: 6.00 Build 0)  -->
<!DOCTYPE svg PUBLIC "-//W3C//DTD SVG 1.1//EN" "http://www.w3.org/Graphics/SVG/1.1/DTD/svg11.dtd">
<svg version="1.1" id="Ebene_1" xmlns="http://www.w3.org/2000/svg" xmlns:xlink="http://www.w3.org/1999/xlink" x="0px" y="0px"
	 viewBox="0 0 309.5 468.7" style="enable-background:new 0 0 309.5 468.7;" xml:space="preserve">
<style type="text/css">
	.st0{fill:#FFFFFF;}
	.st1{fill:#878787;}
	.st2{fill:none;stroke:#000000;stroke-width:1;}
	.st3{fill:none;stroke:#000000;}
</style>
<polygon points="298.8,246.7 289,246.7 289,257 289,267.3 298.8,267.3 309.5,267.3 309.5,257 309.5,246.7 "/>
<path d="M129.2,164.5h-9.9v10.3V185h9.9h10.7v-10.3v-10.3v-10.3C133.8,154.2,129.2,158.8,129.2,164.5"/>
<path d="M289,241.6h15.4V87.4c0-8.5-7.3-15.4-15.8-15.4h-18.1V61.7h10.3V51.4h0.1h10.2c0-5.7-4.2-10.2-10.4-10.3v0V30.8V20.6h0.1
	c0-5.7-4.2-10.2-10.4-10.3v0h-10.2C260.3,4.6,255.6,0,250,0s-10.3,4.6-10.3,10.3V0c-5.1,0-10.2,4.6-10.2,10.3h-0.1v0
	c-5.1,0-10.2,4.6-10.2,10.3h10.2h0v10.3v10.3v10.3c0,5.6,5.1,10.2,10.3,10.3v0V72h-17.9c-8.5,0-15,6.9-15,15.4v77.1h-61.7v15.4h61.3
	c8.5,0,15.8-6.9,15.8-15.4V87.4h5.1v185v174.8h5.1v10.3h-10.7h-10.3c-5.7,0-10.3,4.6-10.3,10.3h10.3h10.3H232h10.7v-10.3v-10.3H253
	V272.4h5.1v185h-5.6c-5.7,0-10.3,4.6-10.3,10.3h10.3h10.3h10.3h10.7v-10.3v-185v-185h5.1V241.6z"/>
<path class="st0" d="M250,41.1h-10.4v10.3H250c5.7,0,10.3-4.6,10.3-10.3H250z"/>
<rect x="239.7" y="20.6" class="st0" width="10.3" height="10.3"/>
<rect x="260.3" y="20.6" class="st0" width="10.3" height="10.3"/>
<g>
	<path d="M14.3,215.9c0-0.2,0.2-0.4,0.4-0.4c0.2,0,0.4,0.2,0.4,0.4c0,0.2-0.2,0.4-0.4,0.4C14.5,216.3,14.3,216.2,14.3,215.9z
		 M16.9,215.9c0-0.2,0.2-0.4,0.4-0.4c0.2,0,0.4,0.2,0.4,0.4c0,0.2-0.2,0.4-0.4,0.4C17.1,216.3,16.9,216.2,16.9,215.9z M19.5,215.9
		c0-0.2,0.2-0.4,0.4-0.4c0.2,0,0.4,0.2,0.4,0.4c0,0.2-0.2,0.4-0.4,0.4C19.7,216.3,19.5,216.2,19.5,215.9z"/>
	<path d="M21.2,215.8H22l0.8-4.6H22l0.1-0.5h2.3l-0.1,0.5h-0.9l-0.4,2h3.2l0.4-2h-0.9l0.1-0.5h2.3l-0.1,0.5h-0.9l-0.8,4.6h0.9
		l-0.1,0.5h-2.3l0.1-0.5h0.9l0.4-2.1H23l-0.4,2.1h0.9l-0.1,0.5h-2.3L21.2,215.8z"/>
</g>
<g>
	<path d="M27.9,214.7c0-1.3,0.9-2.3,2.2-2.3c1,0,1.6,0.6,1.6,1.7c0,1.3-0.9,2.3-2.1,2.3C28.5,216.4,27.9,215.8,27.9,214.7z
		 M31.1,214.1c0-0.8-0.4-1.3-1.1-1.3c-0.9,0-1.6,0.8-1.6,1.9c0,0.8,0.4,1.3,1.1,1.3C30.4,215.9,31.1,215.1,31.1,214.1z"/>
	<path d="M32.9,215.5l-0.1,0.8h-0.5l1-5.9h-0.7l0.1-0.4h1.2l-0.6,3.2c0.3-0.4,0.8-0.7,1.4-0.7c0.9,0,1.5,0.6,1.5,1.7
		c0,1.4-0.9,2.3-2,2.3C33.6,216.4,33.1,216,32.9,215.5z M35.7,214.1c0-0.8-0.4-1.3-1.1-1.3c-0.9,0-1.5,0.9-1.5,1.9
		c0,0.8,0.4,1.3,1.1,1.3C35,215.9,35.7,215.2,35.7,214.1z"/>
	<path d="M37.5,215.5l-0.1,0.8h-0.5l1-5.9h-0.7l0.1-0.4h1.2l-0.6,3.2c0.3-0.4,0.8-0.7,1.4-0.7c0.9,0,1.5,0.6,1.5,1.7
		c0,1.4-0.9,2.3-2,2.3C38.2,216.4,37.7,216,37.5,215.5z M40.3,214.1c0-0.8-0.4-1.3-1.1-1.3c-0.9,0-1.5,0.9-1.5,1.9
		c0,0.8,0.4,1.3,1.1,1.3C39.6,215.9,40.3,215.2,40.3,214.1z"/>
	<path d="M41.8,215.5l0.5-2.6h-0.7l0.1-0.4h1.2l-0.5,3.1c0,0.3,0,0.4,0.3,0.4c0.2,0,0.4-0.1,0.5-0.1l-0.1,0.4
		c-0.2,0.1-0.4,0.1-0.6,0.1C41.9,216.4,41.7,216,41.8,215.5z M42.3,211c0-0.2,0.2-0.4,0.4-0.4s0.4,0.2,0.4,0.4
		c0,0.2-0.2,0.4-0.4,0.4S42.3,211.3,42.3,211z"/>
	<path d="M44,215.3l0.4-2.4h-0.6l0.1-0.4h0.6l0.2-1h0.5l-0.2,1h1.2l-0.1,0.4h-1.2l-0.4,2.4c-0.1,0.5,0.1,0.7,0.5,0.7
		c0.3,0,0.6-0.1,0.8-0.2l-0.1,0.4c-0.2,0.1-0.5,0.2-0.9,0.2C44.5,216.4,43.8,216.2,44,215.3z"/>
	<path d="M47.5,212.8h0.4l0.3-1.8h-0.6l-0.1,0.4h-0.2l0.1-0.7h2l-0.1,0.7h-0.2L49,211h-0.6l-0.3,1.8h0.4l0,0.2h-1L47.5,212.8z
		 M49.3,212.8h0.3L50,211h-0.3l0-0.2h0.7l0.4,1.7l1-1.7h0.7l0,0.2h-0.3l-0.2,1.8h0.3l0,0.2h-0.9l0-0.2h0.3l0.2-1.6l-1,1.6h-0.2
		l-0.5-1.6l-0.4,1.6h0.4l0,0.2h-0.9L49.3,212.8z"/>
</g>
<g>
	<path d="M14.3,11.9c0.8-0.5,3.1-1.6,3.1-2.8c0-0.5-0.3-0.7-0.9-0.7c-0.4,0-0.7,0.1-0.9,0.2c0,0.1,0.1,0.1,0.1,0.2
		c0,0.2-0.1,0.4-0.4,0.4c-0.3,0-0.4-0.2-0.4-0.4c0-0.5,0.9-0.8,1.7-0.8c0.8,0,1.4,0.4,1.4,1.1c0,1.2-1.6,2.2-2.7,2.8h2.3l-0.1,0.5
		h-3.1L14.3,11.9z"/>
	<path d="M18.6,10.5c0-1.3,0.7-2.6,2.3-2.6c1.2,0,1.7,0.8,1.7,1.8c0,1.3-0.7,2.6-2.3,2.6C19.1,12.3,18.6,11.5,18.6,10.5z M22.1,9.7
		c0-0.8-0.3-1.4-1.2-1.4c-1.2,0-1.7,1.1-1.7,2.2c0,0.8,0.3,1.4,1.2,1.4C21.5,11.9,22.1,10.7,22.1,9.7z"/>
	<path d="M24.3,13.1c0-1.1,1.3-3.4,2.3-4.6c-0.7,0.2-1.2-0.2-1.9-0.2c-0.6,0-0.8,0.4-0.9,1h-0.5L23.6,8h0.4L24,8.4
		c0.2-0.3,0.4-0.5,0.9-0.5c0.6,0,1.2,0.5,1.8,0.3c0-0.2,0.2-0.3,0.4-0.3c0.2,0,0.3,0.1,0.3,0.3c0,0.1-0.1,0.2-0.2,0.4
		c-1.5,1.9-2.2,3.3-2.3,4.8c-0.1,0-0.1,0-0.2,0C24.4,13.5,24.3,13.4,24.3,13.1z"/>
	<path d="M29.6,10.6c0-1.2,0.8-2.3,2.2-2.3c0.4,0,0.9,0.1,1.1,0.3L32.8,9c-0.3-0.1-0.6-0.2-1-0.2c-1.1,0-1.6,0.9-1.6,1.8
		c0,0.8,0.4,1.3,1.2,1.3c0.4,0,0.8-0.1,1.1-0.2l-0.1,0.4c-0.3,0.1-0.7,0.2-1.1,0.2C30.2,12.3,29.6,11.7,29.6,10.6z"/>
	<path d="M34,8.8h-0.7l0.1-0.4h1.2L34.4,9c0.3-0.3,0.8-0.7,1.4-0.7c0.5,0,0.8,0.3,0.9,0.8c0.3-0.3,0.9-0.8,1.5-0.8
		c0.6,0,1,0.4,0.9,1.2l-0.3,1.9c0,0.3,0,0.4,0.3,0.4c0.2,0,0.4-0.1,0.5-0.1l-0.1,0.4c-0.2,0.1-0.4,0.1-0.6,0.1
		c-0.6,0-0.8-0.4-0.7-0.9l0.3-1.9c0.1-0.5-0.1-0.8-0.5-0.8c-0.5,0-1,0.4-1.4,0.7l-0.5,2.7h-0.5l0.5-2.7c0.1-0.5-0.1-0.8-0.5-0.8
		c-0.5,0-1,0.4-1.4,0.8l-0.5,2.7h-0.5L34,8.8z"/>
</g>
<g>
	<path class="st1" d="M42,11c0-2,0.8-3.7,2.1-5.1h0.6c-1.3,1.4-2.1,3.2-2.1,5.1c0,1,0.2,2.2,0.7,3h-0.5C42.2,13.1,42,12,42,11z"/>
</g>
<g>
	<path class="st1" d="M44.2,10.5c0-1.5,0.8-3.7,2.6-3.7c0.8,0,1.4,0.4,1.4,0.9C48.2,7.8,48,8,47.8,8c-0.2,0-0.4-0.2-0.4-0.4
		c0-0.1,0-0.2,0.1-0.3c-0.1-0.1-0.3-0.2-0.7-0.2c-1.1,0-1.7,1.1-2,2.4c0.3-0.4,0.9-0.8,1.6-0.8c0.9,0,1.5,0.5,1.5,1.5
		c0,1.1-0.8,2-2,2C44.9,12.3,44.2,11.8,44.2,10.5z M47.4,10.3c0-0.7-0.4-1.1-1.1-1.1c-0.8,0-1.6,0.6-1.6,1.5c0,0.6,0.3,1.2,1.1,1.2
		C46.7,11.9,47.4,11.2,47.4,10.3z"/>
	<path class="st1" d="M49.2,7.9c0-0.4,0.4-1,1-1.4l0.2,0.2C50,7,49.8,7.3,49.7,7.6c0.2,0,0.3,0.2,0.3,0.3c0,0.2-0.2,0.4-0.4,0.4
		S49.2,8.1,49.2,7.9z"/>
	<path class="st1" d="M52.3,12.6c0-0.2,0.2-0.4,0.4-0.4c0.2,0,0.4,0.2,0.4,0.4c0,0.1,0,0.2-0.1,0.3c0.1,0.1,0.4,0.2,0.8,0.2
		c1.2,0,1.7-1.2,1.9-2.4c-0.3,0.4-0.8,0.8-1.5,0.8c-0.9,0-1.6-0.6-1.6-1.6c0-1.1,0.8-2,2-2c1,0,1.7,0.6,1.7,1.9
		c0,1.2-0.5,3.7-2.5,3.7C53,13.5,52.3,13.1,52.3,12.6z M53.1,9.8c0,0.7,0.4,1.2,1.1,1.2c0.8,0,1.5-0.6,1.5-1.5
		c0-0.7-0.4-1.2-1.1-1.2C53.8,8.3,53.1,9,53.1,9.8z"/>
	<path class="st1" d="M57.2,9.6H58l0.4-2.5c-0.2,0.1-0.4,0.3-0.6,0.3c-0.2,0-0.3-0.1-0.2-0.3l1-0.3h0.4l-0.5,2.9H59L59,10h-1.8
		L57.2,9.6z M58.1,12.1l4.2-5.4l0.3,0.2l-4.2,5.4L58.1,12.1z M60.8,11.9c0.6-0.4,2.3-1.3,2.3-2.2c0-0.3-0.2-0.5-0.6-0.5
		c-0.2,0-0.4,0-0.6,0.1c0,0,0,0.1,0,0.1c0,0.2-0.1,0.3-0.3,0.3c-0.2,0-0.3-0.1-0.3-0.3c0-0.3,0.6-0.7,1.2-0.7c0.6,0,1,0.3,1,0.8
		c0,0.9-1.1,1.7-1.9,2.1h1.7l-0.1,0.4h-2.3L60.8,11.9z"/>
	<path class="st1" d="M64.7,7.9c0-0.4,0.4-1,1-1.4l0.2,0.2c-0.3,0.3-0.6,0.6-0.7,0.9c0.2,0,0.3,0.2,0.3,0.3c0,0.2-0.2,0.4-0.4,0.4
		S64.7,8.1,64.7,7.9z M66.1,7.9c0-0.4,0.4-1,1-1.4l0.2,0.2C67,7,66.7,7.3,66.7,7.6c0.2,0,0.3,0.2,0.3,0.3c0,0.2-0.2,0.4-0.4,0.4
		C66.3,8.3,66.1,8.1,66.1,7.9z"/>
	<path class="st1" d="M68.6,8.9c0-1-0.2-2.2-0.7-3h0.5c0.4,0.9,0.6,2,0.6,3c0,2-0.8,3.7-2.1,5.1h-0.6C67.7,12.5,68.6,10.8,68.6,8.9z
		"/>
</g>
<g>
	<path d="M15.2,23.8h0.9l0.8-4.6h-1.6l-0.2,1h-0.5l0.3-1.4h4.7l-0.3,1.4h-0.5l0.2-1h-1.6l-0.8,4.6h0.9l-0.1,0.5h-2.4L15.2,23.8z"/>
	<path d="M20.6,18.3h-0.7l0.1-0.4h1.2L20.6,21c0.4-0.3,1-0.8,1.6-0.8c0.7,0,1,0.5,0.9,1.3l-0.3,1.8c0,0.3,0,0.4,0.3,0.4
		c0.2,0,0.4-0.1,0.5-0.1l-0.1,0.4c-0.2,0.1-0.4,0.1-0.6,0.1c-0.6,0-0.8-0.4-0.7-0.9l0.3-1.8c0.1-0.5,0-0.9-0.5-0.9
		c-0.5,0-1.2,0.5-1.6,0.8l-0.5,2.6h-0.5L20.6,18.3z"/>
	<path d="M24.5,23.4l0.5-2.6h-0.7l0.1-0.4h1.2L25,23.4c0,0.3,0,0.4,0.3,0.4c0.2,0,0.4-0.1,0.5-0.1l-0.1,0.4
		c-0.2,0.1-0.4,0.1-0.6,0.1C24.6,24.3,24.4,23.9,24.5,23.4z M25,19c0-0.2,0.2-0.4,0.4-0.4s0.4,0.2,0.4,0.4s-0.2,0.4-0.4,0.4
		S25,19.2,25,19z"/>
	<path d="M26.2,24.1l0.1-0.4c0.4,0.1,0.8,0.2,1.2,0.2c0.6,0,1-0.3,1-0.6c0-0.8-1.8-0.7-1.8-1.9c0-0.6,0.4-1.1,1.3-1.1
		c0.4,0,0.8,0.1,1.1,0.2L29,20.9c-0.3-0.1-0.7-0.2-1-0.2c-0.7,0-0.9,0.3-0.9,0.6c0,0.8,1.7,0.7,1.7,1.9c0,0.6-0.4,1.1-1.5,1.1
		C27,24.3,26.5,24.2,26.2,24.1z"/>
	<path d="M31.9,23.4l0.5-2.6h-0.7l0.1-0.4H33l-0.5,3.1c0,0.3,0,0.4,0.3,0.4c0.2,0,0.4-0.1,0.5-0.1l-0.1,0.4
		c-0.2,0.1-0.4,0.1-0.6,0.1C32,24.3,31.9,23.9,31.9,23.4z M32.5,19c0-0.2,0.2-0.4,0.4-0.4s0.4,0.2,0.4,0.4s-0.2,0.4-0.4,0.4
		S32.5,19.2,32.5,19z"/>
	<path d="M33.6,24.1l0.1-0.4c0.4,0.1,0.8,0.2,1.2,0.2c0.6,0,1-0.3,1-0.6c0-0.8-1.8-0.7-1.8-1.9c0-0.6,0.4-1.1,1.3-1.1
		c0.4,0,0.8,0.1,1.1,0.2l-0.1,0.4c-0.3-0.1-0.7-0.2-1-0.2c-0.7,0-0.9,0.3-0.9,0.6c0,0.8,1.7,0.7,1.7,1.9c0,0.6-0.4,1.1-1.5,1.1
		C34.4,24.3,34,24.2,33.6,24.1z"/>
	<path d="M40.1,18.3h-0.7l0.1-0.4h1.2L40.2,21c0.4-0.3,1-0.8,1.6-0.8c0.7,0,1,0.5,0.9,1.3l-0.3,1.8c0,0.3,0,0.4,0.3,0.4
		c0.2,0,0.4-0.1,0.5-0.1l-0.1,0.4c-0.2,0.1-0.4,0.1-0.6,0.1c-0.6,0-0.8-0.4-0.7-0.9l0.3-1.8c0.1-0.5,0-0.9-0.5-0.9
		c-0.5,0-1.2,0.5-1.6,0.8l-0.5,2.6h-0.5L40.1,18.3z"/>
	<path d="M43.8,22.6c0-1.3,0.9-2.3,2.2-2.3c1,0,1.6,0.6,1.6,1.7c0,1.3-0.9,2.3-2.1,2.3C44.4,24.3,43.8,23.7,43.8,22.6z M47,22
		c0-0.8-0.4-1.3-1.1-1.3c-0.9,0-1.6,0.8-1.6,1.9c0,0.8,0.4,1.3,1.1,1.3C46.3,23.9,47,23,47,22z"/>
</g>
<g>
	<path d="M48.5,20.8h-0.7l0.1-0.4h1l0.6,3.3c0.6-0.8,1.2-1.7,1.4-2.3l-0.1-0.5h-0.7l0.1-0.4h1l0.6,3.3c0.8-1,1.4-2.1,1.4-2.7
		c0-0.2-0.1-0.2-0.2-0.2c-0.2,0-0.4,0.1-0.6,0.2l-0.2-0.3c0.2-0.2,0.5-0.4,0.9-0.4c0.5,0,0.6,0.3,0.6,0.6c0,0.7-0.8,2.1-1.8,3.3
		h-0.4L51,22c-0.3,0.7-0.9,1.5-1.4,2.2h-0.5L48.5,20.8z"/>
	<path d="M56.5,23.2l0.4-2.4h-0.6l0.1-0.4h0.6l0.2-1h0.5l-0.2,1h1.2l-0.1,0.4h-1.2L57,23.2c-0.1,0.5,0.1,0.7,0.5,0.7
		c0.3,0,0.6-0.1,0.8-0.2l-0.1,0.4c-0.2,0.1-0.5,0.2-0.9,0.2C56.9,24.3,56.3,24.1,56.5,23.2z"/>
	<path d="M58.9,22.6c0-1.4,0.9-2.3,2-2.3c0.6,0,1.1,0.4,1.3,0.9l0.1-0.8h0.5l-0.5,3.1c0,0.3,0,0.4,0.3,0.4c0.2,0,0.4-0.1,0.5-0.1
		l-0.1,0.4c-0.2,0.1-0.4,0.1-0.6,0.1c-0.5,0-0.7-0.3-0.7-0.7c-0.3,0.5-0.8,0.8-1.4,0.8C59.6,24.3,58.9,23.7,58.9,22.6z M62.1,22
		c0-0.7-0.4-1.3-1.1-1.3c-0.9,0-1.5,0.8-1.5,1.8c0,0.8,0.4,1.3,1.1,1.3C61.4,23.9,62.1,23,62.1,22z"/>
	<path d="M63.8,23.4l0.9-5.1H64l0.1-0.4h1.2l-1,5.6c0,0.3,0,0.4,0.3,0.4c0.2,0,0.4-0.1,0.5-0.1l-0.1,0.4c-0.2,0.1-0.4,0.1-0.6,0.1
		C63.9,24.3,63.7,23.9,63.8,23.4z"/>
</g>
<g>
	<path d="M65.9,23.4l0.9-5.1h-0.7l0.1-0.4h1.2l-1,5.6c0,0.3,0,0.4,0.3,0.4c0.2,0,0.4-0.1,0.5-0.1l-0.1,0.4c-0.2,0.1-0.4,0.1-0.6,0.1
		C66,24.3,65.8,23.9,65.9,23.4z"/>
</g>
<g>
	<path d="M69.5,23.8h0.9l0.8-4.6h-0.9l0.1-0.4h2.3l-0.1,0.4h-0.9l-0.8,4.6h0.9l-0.1,0.5h-2.3L69.5,23.8z"/>
	<path d="M74.7,22.6c0-1.4,0.9-2.3,2-2.3c0.6,0,1.1,0.4,1.3,0.9l0.1-0.8h0.5l-0.5,3.1c0,0.3,0,0.4,0.3,0.4c0.2,0,0.4-0.1,0.5-0.1
		l-0.1,0.4c-0.2,0.1-0.4,0.1-0.6,0.1c-0.5,0-0.7-0.3-0.7-0.7c-0.3,0.5-0.8,0.8-1.4,0.8C75.4,24.3,74.7,23.7,74.7,22.6z M77.9,22
		c0-0.7-0.4-1.3-1.1-1.3c-0.9,0-1.5,0.8-1.5,1.8c0,0.8,0.4,1.3,1.1,1.3C77.2,23.9,77.9,23,77.9,22z"/>
	<path d="M80.3,20.8h-0.7l0.1-0.4h1.2L80.8,21c0.3-0.3,0.8-0.7,1.4-0.7c0.5,0,0.8,0.3,0.9,0.8c0.3-0.3,0.9-0.8,1.5-0.8
		c0.6,0,1,0.4,0.9,1.2l-0.3,1.9c0,0.3,0,0.4,0.3,0.4c0.2,0,0.4-0.1,0.5-0.1l-0.1,0.4c-0.2,0.1-0.4,0.1-0.6,0.1
		c-0.6,0-0.8-0.4-0.7-0.9l0.3-1.9c0.1-0.5-0.1-0.8-0.5-0.8c-0.5,0-1,0.4-1.4,0.7l-0.5,2.7h-0.5l0.5-2.7c0.1-0.5-0.1-0.8-0.5-0.8
		c-0.5,0-1,0.4-1.4,0.8l-0.5,2.7h-0.5L80.3,20.8z"/>
</g>
<g>
	<path d="M14.4,34.6c0-1.2,0.8-2.3,2.2-2.3c0.4,0,0.9,0.1,1.1,0.3l-0.1,0.4c-0.3-0.1-0.6-0.2-1-0.2c-1.1,0-1.6,0.9-1.6,1.8
		c0,0.8,0.4,1.3,1.2,1.3c0.4,0,0.8-0.1,1.1-0.2l-0.1,0.4c-0.3,0.1-0.7,0.2-1.1,0.2C15.1,36.3,14.4,35.7,14.4,34.6z"/>
	<path d="M18.1,34.6c0-1.3,0.9-2.3,2.2-2.3c1,0,1.6,0.6,1.6,1.7c0,1.3-0.9,2.3-2.1,2.3C18.7,36.3,18.1,35.7,18.1,34.6z M21.3,34
		c0-0.8-0.4-1.3-1.1-1.3c-0.9,0-1.6,0.8-1.6,1.9c0,0.8,0.4,1.3,1.1,1.3C20.6,35.9,21.3,35,21.3,34z"/>
	<path d="M23.3,32.8h-0.7l0.1-0.4h1.2L23.7,33c0.3-0.3,0.8-0.7,1.4-0.7c0.5,0,0.8,0.3,0.9,0.8c0.3-0.3,0.9-0.8,1.5-0.8
		c0.6,0,1,0.4,0.9,1.2l-0.3,1.9c0,0.3,0,0.4,0.3,0.4c0.2,0,0.4-0.1,0.5-0.1l-0.1,0.4c-0.2,0.1-0.4,0.1-0.6,0.1
		c-0.6,0-0.8-0.4-0.7-0.9l0.3-1.9c0.1-0.5-0.1-0.8-0.5-0.8c-0.5,0-1,0.4-1.4,0.7l-0.5,2.7H25l0.5-2.7c0.1-0.5-0.1-0.8-0.5-0.8
		c-0.5,0-1,0.4-1.4,0.8l-0.5,2.7h-0.5L23.3,32.8z"/>
	<path d="M30.3,35.4L29.8,38h-0.5l0.9-5.2h-0.7l0.1-0.4h1.2L30.7,33c0.3-0.4,0.8-0.7,1.4-0.7c0.8,0,1.5,0.6,1.5,1.7
		c0,1.4-0.9,2.3-2,2.3C30.9,36.3,30.5,35.9,30.3,35.4z M33.1,34c0-0.8-0.4-1.3-1.1-1.3c-0.9,0-1.5,0.9-1.5,1.9
		c0,0.7,0.4,1.3,1.1,1.3C32.4,35.9,33.1,35.1,33.1,34z"/>
	<path d="M34.3,34.6c0-1.4,0.9-2.3,2-2.3c0.6,0,1.1,0.4,1.3,0.9l0.1-0.8h0.5l-0.5,3.1c0,0.3,0,0.4,0.3,0.4c0.2,0,0.4-0.1,0.5-0.1
		l-0.1,0.4c-0.2,0.1-0.4,0.1-0.6,0.1c-0.5,0-0.7-0.3-0.7-0.7c-0.3,0.5-0.8,0.8-1.4,0.8C34.9,36.3,34.3,35.7,34.3,34.6z M37.4,34
		c0-0.7-0.4-1.3-1.1-1.3c-0.9,0-1.5,0.8-1.5,1.8c0,0.8,0.4,1.3,1.1,1.3C36.8,35.9,37.4,35,37.4,34z"/>
	<path d="M39.8,32.8h-0.7l0.1-0.4h1.2l-0.1,0.8c0.4-0.4,0.9-0.9,1.5-0.9c0.4,0,0.6,0.2,0.6,0.6c0,0.2,0,0.4-0.1,0.6l-0.5,0
		c0-0.1,0.1-0.3,0.1-0.4c0-0.2-0.1-0.2-0.2-0.2c-0.5,0-1.2,0.7-1.4,0.9l-0.4,2.5h-0.5L39.8,32.8z"/>
	<path d="M42.6,34.6c0-1.3,1-2.3,2.1-2.3c0.7,0,1.1,0.4,1.1,0.9c0,1-1.4,1.4-2.7,1.4c0,0.8,0.4,1.3,1.2,1.3c0.5,0,0.9-0.1,1.2-0.3
		L45.4,36c-0.3,0.2-0.7,0.3-1.2,0.3C43.2,36.3,42.6,35.7,42.6,34.6z M45.3,33.2c0-0.3-0.2-0.5-0.6-0.5c-0.7,0-1.4,0.6-1.5,1.5
		C44.1,34.2,45.3,33.9,45.3,33.2z"/>
	<path d="M46.3,34.6c0-1.4,0.9-2.3,2-2.3c0.7,0,1.1,0.4,1.3,0.9l0.5-2.9h-0.8l0.1-0.4h1.4l-1,5.6c0,0.3,0,0.4,0.3,0.4
		c0.2,0,0.4-0.1,0.5-0.1l-0.1,0.4c-0.2,0.1-0.4,0.1-0.6,0.1c-0.5,0-0.7-0.3-0.6-0.7c-0.3,0.5-0.8,0.8-1.4,0.8
		C47,36.3,46.3,35.7,46.3,34.6z M49.5,34c0-0.7-0.4-1.3-1.1-1.3c-0.9,0-1.5,0.8-1.5,1.8c0,0.8,0.4,1.3,1.1,1.3
		C48.8,35.9,49.5,35,49.5,34z"/>
</g>
<g>
	<path d="M53.3,35.2l0.4-2.4h-0.6l0.1-0.4h0.6l0.2-1h0.5l-0.2,1h1.2l-0.1,0.4h-1.2l-0.4,2.4c-0.1,0.5,0.1,0.7,0.5,0.7
		c0.3,0,0.6-0.1,0.8-0.2l-0.1,0.4c-0.2,0.1-0.5,0.2-0.9,0.2C53.8,36.3,53.1,36.1,53.3,35.2z"/>
	<path d="M55.8,34.6c0-1.3,0.9-2.3,2.2-2.3c1,0,1.6,0.6,1.6,1.7c0,1.3-0.9,2.3-2.1,2.3C56.4,36.3,55.8,35.7,55.8,34.6z M59,34
		c0-0.8-0.4-1.3-1.1-1.3c-0.9,0-1.6,0.8-1.6,1.9c0,0.8,0.4,1.3,1.1,1.3C58.3,35.9,59,35,59,34z"/>
</g>
<g>
	<path d="M60.7,37.7l0.2-0.3c0.1,0.1,0.4,0.3,0.6,0.3c1.4,0,3.6-3.6,3.6-4.6c0-0.2-0.1-0.3-0.3-0.3c-0.2,0-0.4,0.1-0.6,0.2l-0.2-0.3
		c0.2-0.2,0.5-0.4,0.9-0.4c0.5,0,0.7,0.3,0.7,0.7c0,1.2-2.3,5.1-4.1,5.1C61.2,38.1,60.9,37.9,60.7,37.7z M62.6,32.8h-0.7l0.1-0.4H63
		l0.4,3.8H63L62.6,32.8z"/>
	<path d="M66.2,34.6c0-1.3,0.9-2.3,2.2-2.3c1,0,1.6,0.6,1.6,1.7c0,1.3-0.9,2.3-2.1,2.3C66.8,36.3,66.2,35.7,66.2,34.6z M69.4,34
		c0-0.8-0.4-1.3-1.1-1.3c-0.9,0-1.6,0.8-1.6,1.9c0,0.8,0.4,1.3,1.1,1.3C68.7,35.9,69.4,35,69.4,34z"/>
	<path d="M70.9,35l0.4-2.2h-0.7l0.1-0.4h1.2L71.4,35c-0.1,0.5,0,0.9,0.5,0.9c0.5,0,1.1-0.4,1.5-0.8l0.5-2.7h0.5l-0.5,3.1
		c-0.1,0.3,0,0.4,0.3,0.4c0.2,0,0.4-0.1,0.5-0.1l-0.1,0.4c-0.2,0.1-0.4,0.1-0.6,0.1c-0.5,0-0.7-0.3-0.7-0.7c-0.4,0.3-1,0.7-1.6,0.7
		C71.1,36.3,70.8,35.8,70.9,35z"/>
	<path d="M76.1,32.8h-0.7l0.1-0.4h1.2l-0.1,0.8c0.4-0.4,0.9-0.9,1.5-0.9c0.4,0,0.6,0.2,0.6,0.6c0,0.2,0,0.4-0.1,0.6l-0.5,0
		c0-0.1,0.1-0.3,0.1-0.4c0-0.2-0.1-0.2-0.2-0.2c-0.5,0-1.2,0.7-1.4,0.9L76,36.2h-0.5L76.1,32.8z"/>
</g>
<g>
	<path d="M80.7,34.6c0-1.4,0.9-2.3,2-2.3c0.6,0,1.1,0.4,1.3,0.9l0.1-0.8h0.5l-0.5,3.1c0,0.3,0,0.4,0.3,0.4c0.2,0,0.4-0.1,0.5-0.1
		l-0.1,0.4c-0.2,0.1-0.4,0.1-0.6,0.1c-0.5,0-0.7-0.3-0.7-0.7c-0.3,0.5-0.8,0.8-1.4,0.8C81.4,36.3,80.7,35.7,80.7,34.6z M83.9,34
		c0-0.7-0.4-1.3-1.1-1.3c-0.9,0-1.5,0.8-1.5,1.8c0,0.8,0.4,1.3,1.1,1.3C83.2,35.9,83.9,35,83.9,34z"/>
	<path d="M86.1,32.8h-0.7l0.1-0.4h1l0.5,3.3c0.9-1,1.7-2.1,1.7-2.7c0-0.2-0.1-0.2-0.2-0.2s-0.4,0.1-0.6,0.2l-0.2-0.3
		c0.3-0.2,0.6-0.4,0.9-0.4c0.5,0,0.6,0.4,0.6,0.6c0,0.8-1,2.1-2.1,3.3h-0.5L86.1,32.8z"/>
	<path d="M89.7,34.6c0-1.3,1-2.3,2.1-2.3c0.7,0,1.1,0.4,1.1,0.9c0,1-1.4,1.4-2.7,1.4c0,0.8,0.4,1.3,1.2,1.3c0.5,0,0.9-0.1,1.2-0.3
		L92.5,36c-0.3,0.2-0.7,0.3-1.2,0.3C90.3,36.3,89.7,35.7,89.7,34.6z M92.4,33.2c0-0.3-0.2-0.5-0.6-0.5c-0.7,0-1.4,0.6-1.5,1.5
		C91.2,34.2,92.4,33.9,92.4,33.2z"/>
	<path d="M94.2,32.8h-0.7l0.1-0.4h1.2l-0.1,0.8c0.4-0.4,0.9-0.9,1.5-0.9c0.4,0,0.6,0.2,0.6,0.6c0,0.2,0,0.4-0.1,0.6l-0.5,0
		c0-0.1,0.1-0.3,0.1-0.4c0-0.2-0.1-0.2-0.2-0.2c-0.5,0-1.2,0.7-1.4,0.9l-0.4,2.5h-0.5L94.2,32.8z"/>
	<path d="M96.9,34.6c0-1.4,0.9-2.3,2-2.3c0.6,0,1.1,0.4,1.3,0.9l0.1-0.8h0.5l-0.5,3.1c0,0.3,0,0.4,0.3,0.4c0.2,0,0.4-0.1,0.5-0.1
		l-0.1,0.4c-0.2,0.1-0.4,0.1-0.6,0.1c-0.5,0-0.7-0.3-0.7-0.7c-0.3,0.5-0.8,0.8-1.4,0.8C97.6,36.3,96.9,35.7,96.9,34.6z M100.1,34
		c0-0.7-0.4-1.3-1.1-1.3c-0.9,0-1.5,0.8-1.5,1.8c0,0.8,0.4,1.3,1.1,1.3C99.4,35.9,100.1,35,100.1,34z"/>
	<path d="M100.9,37.1c0-0.7,0.8-1.1,1.3-1.3c-0.1-0.1-0.1-0.2-0.1-0.3c0-0.2,0.1-0.4,0.3-0.5c-0.3-0.2-0.5-0.6-0.5-1
		c0-0.9,0.7-1.6,1.7-1.6c0.2,0,0.4,0,0.6,0.1h1.3l-0.1,0.4l-0.7,0c0.2,0.2,0.2,0.4,0.2,0.7c0,0.9-0.7,1.6-1.7,1.6
		c-0.2,0-0.3,0-0.5-0.1c-0.1,0.1-0.2,0.2-0.2,0.3c0,0.2,0.4,0.4,0.9,0.6c0.5,0.3,1,0.5,1,1c0,0.5-0.4,1-1.9,1
		C101.2,38.1,100.9,37.5,100.9,37.1z M104,37.1c0-0.2-0.2-0.4-0.9-0.7c-0.2-0.1-0.4-0.2-0.6-0.3c-0.5,0.2-1.1,0.5-1.1,1
		c0,0.2,0.2,0.6,1.3,0.6C103.6,37.7,104,37.4,104,37.1z M102.4,33.9c0,0.5,0.3,0.8,0.8,0.8c0.7,0,1.2-0.6,1.2-1.2
		c0-0.5-0.3-0.8-0.8-0.8C102.9,32.7,102.4,33.3,102.4,33.9z"/>
	<path d="M105.6,34.6c0-1.3,1-2.3,2.1-2.3c0.7,0,1.1,0.4,1.1,0.9c0,1-1.4,1.4-2.7,1.4c0,0.8,0.4,1.3,1.2,1.3c0.5,0,0.9-0.1,1.2-0.3
		l-0.1,0.5c-0.3,0.2-0.7,0.3-1.2,0.3C106.3,36.3,105.6,35.7,105.6,34.6z M108.3,33.2c0-0.3-0.2-0.5-0.6-0.5c-0.7,0-1.4,0.6-1.5,1.5
		C107.2,34.2,108.3,33.9,108.3,33.2z"/>
	<path d="M109.3,35.9c0-0.2,0.2-0.4,0.4-0.4c0.2,0,0.4,0.2,0.4,0.4c0,0.2-0.2,0.4-0.4,0.4C109.5,36.3,109.3,36.1,109.3,35.9z
		 M111.9,35.9c0-0.2,0.2-0.4,0.4-0.4c0.2,0,0.4,0.2,0.4,0.4c0,0.2-0.2,0.4-0.4,0.4C112.1,36.3,111.9,36.1,111.9,35.9z M114.5,35.9
		c0-0.2,0.2-0.4,0.4-0.4c0.2,0,0.4,0.2,0.4,0.4c0,0.2-0.2,0.4-0.4,0.4C114.7,36.3,114.5,36.1,114.5,35.9z"/>
</g>
<g>
	<path d="M14.3,428.1c0-0.2,0.2-0.4,0.4-0.4c0.2,0,0.4,0.2,0.4,0.4c0,0.2-0.2,0.4-0.4,0.4C14.5,428.5,14.3,428.3,14.3,428.1z
		 M16.9,428.1c0-0.2,0.2-0.4,0.4-0.4c0.2,0,0.4,0.2,0.4,0.4c0,0.2-0.2,0.4-0.4,0.4C17.1,428.5,16.9,428.3,16.9,428.1z M19.5,428.1
		c0-0.2,0.2-0.4,0.4-0.4c0.2,0,0.4,0.2,0.4,0.4c0,0.2-0.2,0.4-0.4,0.4C19.7,428.5,19.5,428.3,19.5,428.1z"/>
	<path d="M21.6,426c0-1.7,1.2-3.2,3.3-3.2c0.7,0,1.4,0.2,1.8,0.4l-0.2,1.3H26l0.2-1c-0.3-0.1-0.8-0.2-1.3-0.2
		c-1.6,0-2.7,1.2-2.7,2.8c0,1.4,1,2,2.1,2c0.7,0,1.3-0.2,1.8-0.5L26,428c-0.4,0.2-1.1,0.5-1.8,0.5C22.7,428.5,21.6,427.6,21.6,426z"
		/>
	<path d="M26.9,426.8c0-1.3,0.9-2.3,2-2.3c0.6,0,1.1,0.4,1.3,0.9l0.1-0.8h0.5l-0.5,3.1c0,0.3,0,0.4,0.3,0.4c0.2,0,0.4-0.1,0.5-0.1
		l-0.1,0.4c-0.2,0.1-0.4,0.1-0.6,0.1c-0.5,0-0.7-0.3-0.7-0.7c-0.3,0.5-0.8,0.8-1.4,0.8C27.5,428.5,26.9,427.9,26.9,426.8z M30,426.2
		c0-0.7-0.4-1.3-1.1-1.3c-0.9,0-1.5,0.8-1.5,1.8c0,0.8,0.4,1.3,1.1,1.3C29.3,428.1,30,427.2,30,426.2z"/>
	<path d="M32,427.4l0.4-2.4h-0.6l0.1-0.4h0.6l0.2-1h0.5l-0.2,1h1.2l-0.1,0.4h-1.2l-0.4,2.4c-0.1,0.5,0.1,0.7,0.5,0.7
		c0.3,0,0.6-0.1,0.8-0.2l-0.1,0.4c-0.2,0.1-0.5,0.2-0.9,0.2C32.4,428.5,31.8,428.3,32,427.4z"/>
</g>
<g>
	<path d="M14.3,345.9c0-0.2,0.2-0.4,0.4-0.4c0.2,0,0.4,0.2,0.4,0.4c0,0.2-0.2,0.4-0.4,0.4C14.5,346.3,14.3,346.1,14.3,345.9z
		 M16.9,345.9c0-0.2,0.2-0.4,0.4-0.4c0.2,0,0.4,0.2,0.4,0.4c0,0.2-0.2,0.4-0.4,0.4C17.1,346.3,16.9,346.1,16.9,345.9z M19.5,345.9
		c0-0.2,0.2-0.4,0.4-0.4c0.2,0,0.4,0.2,0.4,0.4c0,0.2-0.2,0.4-0.4,0.4C19.7,346.3,19.5,346.1,19.5,345.9z"/>
	<path d="M21.2,345.7H22l0.8-4.6H22l0.1-0.5h2.4c1.4,0,2.5,0.7,2.5,2.4c0,1.9-1.4,3.1-3.3,3.1h-2.5L21.2,345.7z M23.6,345.7
		c1.6,0,2.8-1.1,2.8-2.7c0-1.2-0.7-1.9-2-1.9h-1l-0.8,4.6H23.6z"/>
	<path d="M27.5,344.6c0-1.3,0.9-2.3,2.2-2.3c1,0,1.6,0.6,1.6,1.7c0,1.3-0.9,2.3-2.1,2.3C28.1,346.3,27.5,345.7,27.5,344.6z
		 M30.7,344c0-0.8-0.4-1.3-1.1-1.3c-0.9,0-1.6,0.8-1.6,1.9c0,0.8,0.4,1.3,1.1,1.3C30,345.9,30.7,345,30.7,344z"/>
	<path d="M31,347.1c0-0.7,0.8-1.1,1.3-1.3c-0.1-0.1-0.1-0.2-0.1-0.3c0-0.2,0.1-0.4,0.3-0.5c-0.3-0.2-0.5-0.6-0.5-1
		c0-0.9,0.7-1.6,1.7-1.6c0.2,0,0.4,0,0.6,0.1h1.3l-0.1,0.4l-0.7,0c0.2,0.2,0.2,0.4,0.2,0.7c0,0.9-0.7,1.6-1.7,1.6
		c-0.2,0-0.3,0-0.5-0.1c-0.1,0.1-0.2,0.2-0.2,0.3c0,0.2,0.4,0.4,0.9,0.6c0.5,0.3,1,0.5,1,1c0,0.5-0.4,1-1.9,1
		C31.3,348.1,31,347.5,31,347.1z M34.1,347.1c0-0.2-0.2-0.4-0.9-0.7c-0.2-0.1-0.4-0.2-0.6-0.3c-0.5,0.2-1.1,0.5-1.1,1
		c0,0.2,0.2,0.6,1.3,0.6C33.8,347.7,34.1,347.4,34.1,347.1z M32.6,343.9c0,0.5,0.3,0.8,0.8,0.8c0.7,0,1.2-0.6,1.2-1.2
		c0-0.5-0.3-0.8-0.8-0.8C33.1,342.7,32.6,343.3,32.6,343.9z"/>
</g>
<g>
	<path d="M14.3,96.4c0-0.2,0.2-0.4,0.4-0.4c0.2,0,0.4,0.2,0.4,0.4c0,0.2-0.2,0.4-0.4,0.4C14.5,96.8,14.3,96.6,14.3,96.4z M16.9,96.4
		c0-0.2,0.2-0.4,0.4-0.4c0.2,0,0.4,0.2,0.4,0.4c0,0.2-0.2,0.4-0.4,0.4C17.1,96.8,16.9,96.6,16.9,96.4z M19.5,96.4
		c0-0.2,0.2-0.4,0.4-0.4c0.2,0,0.4,0.2,0.4,0.4c0,0.2-0.2,0.4-0.4,0.4C19.7,96.8,19.5,96.6,19.5,96.4z"/>
	<path d="M21.6,94.4c0-1.7,1.2-3.2,3.3-3.2c0.7,0,1.4,0.2,1.8,0.4l-0.2,1.3H26l0.2-1c-0.3-0.1-0.8-0.2-1.3-0.2
		c-1.6,0-2.7,1.2-2.7,2.8c0,1.4,1,2,2.1,2c0.7,0,1.3-0.2,1.8-0.5L26,96.4c-0.4,0.2-1.1,0.5-1.8,0.5C22.7,96.9,21.6,96,21.6,94.4z"/>
	<path d="M26.8,95.1c0-1.3,0.9-2.3,2.2-2.3c1,0,1.6,0.6,1.6,1.7c0,1.3-0.9,2.3-2.1,2.3C27.5,96.8,26.8,96.2,26.8,95.1z M30.1,94.5
		c0-0.8-0.4-1.3-1.1-1.3c-0.9,0-1.6,0.8-1.6,1.9c0,0.8,0.4,1.3,1.1,1.3C29.4,96.4,30.1,95.6,30.1,94.5z"/>
	<path d="M31.4,95.9l0.9-5.1h-0.7l0.1-0.4h1.2l-1,5.6c0,0.3,0,0.4,0.3,0.4c0.2,0,0.4-0.1,0.5-0.1l-0.1,0.4c-0.2,0.1-0.4,0.1-0.6,0.1
		C31.5,96.8,31.3,96.4,31.4,95.9z"/>
	<path d="M33.4,95.9l0.9-5.1h-0.7l0.1-0.4h1.2l-1,5.6c0,0.3,0,0.4,0.3,0.4c0.2,0,0.4-0.1,0.5-0.1l-0.1,0.4c-0.2,0.1-0.4,0.1-0.6,0.1
		C33.5,96.8,33.3,96.4,33.4,95.9z"/>
	<path d="M35.3,95.1c0-1.3,1-2.3,2.1-2.3c0.7,0,1.1,0.4,1.1,0.9c0,1-1.4,1.4-2.7,1.4c0,0.8,0.4,1.3,1.2,1.3c0.5,0,0.9-0.1,1.2-0.3
		l-0.1,0.5c-0.3,0.2-0.7,0.3-1.2,0.3C36,96.8,35.3,96.3,35.3,95.1z M38,93.7c0-0.3-0.2-0.5-0.6-0.5c-0.7,0-1.4,0.6-1.5,1.5
		C36.9,94.7,38,94.4,38,93.7z"/>
	<path d="M39.1,95.1c0-1.4,0.9-2.3,2-2.3c0.6,0,1.1,0.4,1.3,0.9l0.1-0.8H43L42.5,96c0,0.3,0,0.4,0.3,0.4c0.2,0,0.4-0.1,0.5-0.1
		l-0.1,0.4c-0.2,0.1-0.4,0.1-0.6,0.1c-0.5,0-0.7-0.3-0.7-0.7c-0.3,0.5-0.8,0.8-1.4,0.8C39.7,96.8,39.1,96.2,39.1,95.1z M42.2,94.5
		c0-0.7-0.4-1.3-1.1-1.3c-0.9,0-1.5,0.8-1.5,1.8c0,0.8,0.4,1.3,1.1,1.3C41.6,96.4,42.2,95.5,42.2,94.5z"/>
	<path d="M43,97.7c0-0.7,0.8-1.1,1.3-1.3c-0.1-0.1-0.1-0.2-0.1-0.3c0-0.2,0.1-0.4,0.3-0.5c-0.3-0.2-0.5-0.6-0.5-1
		c0-0.9,0.7-1.6,1.7-1.6c0.2,0,0.4,0,0.6,0.1h1.3l-0.1,0.4l-0.7,0c0.2,0.2,0.2,0.4,0.2,0.7c0,0.9-0.7,1.6-1.7,1.6
		c-0.2,0-0.3,0-0.5-0.1c-0.1,0.1-0.2,0.2-0.2,0.3c0,0.2,0.4,0.4,0.9,0.6c0.5,0.3,1,0.5,1,1c0,0.5-0.4,1-1.9,1
		C43.3,98.6,43,98.1,43,97.7z M46.1,97.6c0-0.2-0.2-0.4-0.9-0.7c-0.2-0.1-0.4-0.2-0.6-0.3c-0.5,0.2-1.1,0.5-1.1,1
		c0,0.2,0.2,0.6,1.3,0.6C45.8,98.2,46.1,97.9,46.1,97.6z M44.5,94.5c0,0.5,0.3,0.8,0.8,0.8c0.7,0,1.2-0.6,1.2-1.2
		c0-0.5-0.3-0.8-0.8-0.8C45.1,93.2,44.5,93.8,44.5,94.5z"/>
	<path d="M48.1,95.5l0.4-2.2h-0.7l0.1-0.4h1.2l-0.5,2.6c-0.1,0.5,0,0.9,0.5,0.9c0.5,0,1.1-0.4,1.5-0.8l0.5-2.7h0.5L51.1,96
		c-0.1,0.3,0,0.4,0.3,0.4c0.2,0,0.4-0.1,0.5-0.1l-0.1,0.4c-0.2,0.1-0.4,0.1-0.6,0.1c-0.5,0-0.7-0.3-0.7-0.7c-0.4,0.3-1,0.7-1.6,0.7
		C48.4,96.8,48,96.4,48.1,95.5z"/>
	<path d="M52.5,95.1c0-1.3,1-2.3,2.1-2.3c0.7,0,1.1,0.4,1.1,0.9c0,1-1.4,1.4-2.7,1.4c0,0.8,0.4,1.3,1.2,1.3c0.5,0,0.9-0.1,1.2-0.3
		l-0.1,0.5c-0.3,0.2-0.7,0.3-1.2,0.3C53.2,96.8,52.5,96.3,52.5,95.1z M55.2,93.7c0-0.3-0.2-0.5-0.6-0.5c-0.7,0-1.4,0.6-1.5,1.5
		C54.1,94.7,55.2,94.4,55.2,93.7z"/>
</g>
<g>
	<path d="M14.3,119.8c0-0.2,0.2-0.4,0.4-0.4c0.2,0,0.4,0.2,0.4,0.4c0,0.2-0.2,0.4-0.4,0.4C14.5,120.2,14.3,120,14.3,119.8z
		 M16.9,119.8c0-0.2,0.2-0.4,0.4-0.4c0.2,0,0.4,0.2,0.4,0.4c0,0.2-0.2,0.4-0.4,0.4C17.1,120.2,16.9,120,16.9,119.8z M19.5,119.8
		c0-0.2,0.2-0.4,0.4-0.4c0.2,0,0.4,0.2,0.4,0.4c0,0.2-0.2,0.4-0.4,0.4C19.7,120.2,19.5,120,19.5,119.8z"/>
	<path d="M21.6,117.7c0-1.7,1.2-3.2,3.3-3.2c0.7,0,1.4,0.2,1.8,0.4l-0.2,1.3H26l0.2-1c-0.3-0.1-0.8-0.2-1.3-0.2
		c-1.6,0-2.7,1.2-2.7,2.8c0,1.4,1,2,2.1,2c0.7,0,1.3-0.2,1.8-0.5l-0.1,0.5c-0.4,0.2-1.1,0.5-1.8,0.5
		C22.7,120.2,21.6,119.3,21.6,117.7z"/>
	<path d="M26.8,118.5c0-1.3,0.9-2.3,2.2-2.3c1,0,1.6,0.6,1.6,1.7c0,1.3-0.9,2.3-2.1,2.3C27.5,120.2,26.8,119.6,26.8,118.5z
		 M30.1,117.9c0-0.8-0.4-1.3-1.1-1.3c-0.9,0-1.6,0.8-1.6,1.9c0,0.8,0.4,1.3,1.1,1.3C29.4,119.8,30.1,118.9,30.1,117.9z"/>
	<path d="M32.1,119.3l-0.4,2.5h-0.5l0.9-5.2h-0.7l0.1-0.4h1.2l-0.1,0.6c0.3-0.4,0.8-0.7,1.4-0.7c0.8,0,1.5,0.6,1.5,1.7
		c0,1.4-0.9,2.3-2,2.3C32.7,120.2,32.3,119.8,32.1,119.3z M34.9,117.9c0-0.8-0.4-1.3-1.1-1.3c-0.9,0-1.5,0.9-1.5,1.9
		c0,0.7,0.4,1.3,1.1,1.3C34.2,119.8,34.9,119,34.9,117.9z"/>
</g>
<g>
	<path d="M34.6,121.6l0.2-0.3c0.1,0.1,0.4,0.3,0.6,0.3c1.4,0,3.6-3.6,3.6-4.6c0-0.2-0.1-0.3-0.3-0.3c-0.2,0-0.4,0.1-0.6,0.2
		l-0.2-0.3c0.2-0.2,0.5-0.4,0.9-0.4c0.5,0,0.7,0.3,0.7,0.7c0,1.2-2.3,5.1-4.1,5.1C35.1,122,34.8,121.8,34.6,121.6z M36.5,116.7h-0.7
		l0.1-0.4H37l0.4,3.8h-0.5L36.5,116.7z"/>
</g>
<g>
	<path d="M42.7,115.1H42l0.1-0.4h2.2l-0.1,0.4h-0.9l0.6,4.3l2-3.8l-0.1-0.5H45l0.1-0.4h2.2l-0.1,0.4h-0.9l0.7,4.3l2.1-4.3h-0.9
		l0.1-0.4h2.2l-0.1,0.4h-0.8l-2.5,5h-0.5l-0.7-3.8l-2,3.8h-0.5L42.7,115.1z"/>
</g>
<g>
	<path d="M50.6,116.7h-0.7l0.1-0.4h1.2l-0.1,0.8c0.4-0.4,0.9-0.9,1.5-0.9c0.4,0,0.6,0.2,0.6,0.6c0,0.2,0,0.4-0.1,0.6l-0.5,0
		c0-0.1,0.1-0.3,0.1-0.4c0-0.2-0.1-0.2-0.2-0.2c-0.5,0-1.2,0.7-1.4,0.9l-0.4,2.5H50L50.6,116.7z"/>
	<path d="M53.6,119.3l0.5-2.6h-0.7l0.1-0.4h1.2l-0.5,3.1c0,0.3,0,0.4,0.3,0.4c0.2,0,0.4-0.1,0.5-0.1l-0.1,0.4
		c-0.2,0.1-0.4,0.1-0.6,0.1C53.7,120.2,53.5,119.8,53.6,119.3z M54.1,114.9c0-0.2,0.2-0.4,0.4-0.4s0.4,0.2,0.4,0.4s-0.2,0.4-0.4,0.4
		S54.1,115.1,54.1,114.9z"/>
	<path d="M55.8,119.1l0.4-2.4h-0.6l0.1-0.4h0.6l0.2-1H57l-0.2,1H58l-0.1,0.4h-1.2l-0.4,2.4c-0.1,0.5,0.1,0.7,0.5,0.7
		c0.3,0,0.6-0.1,0.8-0.2l-0.1,0.4c-0.2,0.1-0.5,0.2-0.9,0.2C56.2,120.2,55.6,120,55.8,119.1z"/>
	<path d="M58.2,118.5c0-1.3,1-2.3,2.1-2.3c0.7,0,1.1,0.4,1.1,0.9c0,1-1.4,1.4-2.7,1.4c0,0.8,0.4,1.3,1.2,1.3c0.5,0,0.9-0.1,1.2-0.3
		l-0.1,0.5c-0.3,0.2-0.7,0.3-1.2,0.3C58.9,120.2,58.2,119.6,58.2,118.5z M60.9,117.1c0-0.3-0.2-0.5-0.6-0.5c-0.7,0-1.4,0.6-1.5,1.5
		C59.8,118.1,60.9,117.8,60.9,117.1z"/>
	<path d="M62.8,116.7h-0.7l0.1-0.4h1.2l-0.1,0.8c0.4-0.4,0.9-0.9,1.5-0.9c0.4,0,0.6,0.2,0.6,0.6c0,0.2,0,0.4-0.1,0.6l-0.5,0
		c0-0.1,0.1-0.3,0.1-0.4c0-0.2-0.1-0.2-0.2-0.2c-0.5,0-1.2,0.7-1.4,0.9l-0.4,2.5h-0.5L62.8,116.7z"/>
</g>
<g>
	<path d="M14.3,78c0-0.2,0.2-0.4,0.4-0.4c0.2,0,0.4,0.2,0.4,0.4c0,0.2-0.2,0.4-0.4,0.4C14.5,78.4,14.3,78.2,14.3,78z M16.9,78
		c0-0.2,0.2-0.4,0.4-0.4c0.2,0,0.4,0.2,0.4,0.4c0,0.2-0.2,0.4-0.4,0.4C17.1,78.4,16.9,78.2,16.9,78z M19.5,78c0-0.2,0.2-0.4,0.4-0.4
		c0.2,0,0.4,0.2,0.4,0.4c0,0.2-0.2,0.4-0.4,0.4C19.7,78.4,19.5,78.2,19.5,78z"/>
	<path d="M21.6,75.9c0-1.7,1.2-3.2,3.3-3.2c0.7,0,1.4,0.2,1.8,0.4l-0.2,1.3H26l0.2-1c-0.3-0.1-0.8-0.2-1.3-0.2
		c-1.6,0-2.7,1.2-2.7,2.8c0,1.4,1,2,2.1,2c0.7,0,1.3-0.2,1.8-0.5L26,77.9c-0.4,0.2-1.1,0.5-1.8,0.5C22.7,78.4,21.6,77.5,21.6,75.9z"
		/>
	<path d="M27.6,74.9h-0.7l0.1-0.4h1.2l-0.1,0.8c0.4-0.4,0.9-0.9,1.5-0.9c0.4,0,0.6,0.2,0.6,0.6c0,0.2,0,0.4-0.1,0.6l-0.5,0
		c0-0.1,0.1-0.3,0.1-0.4c0-0.2-0.1-0.2-0.2-0.2c-0.5,0-1.2,0.7-1.4,0.9l-0.4,2.5H27L27.6,74.9z"/>
	<path d="M30.3,76.7c0-1.3,1-2.3,2.1-2.3c0.7,0,1.1,0.4,1.1,0.9c0,1-1.4,1.4-2.7,1.4c0,0.8,0.4,1.3,1.2,1.3c0.5,0,0.9-0.1,1.2-0.3
		l-0.1,0.5c-0.3,0.2-0.7,0.3-1.2,0.3C31,78.4,30.3,77.8,30.3,76.7z M33,75.3c0-0.3-0.2-0.5-0.6-0.5c-0.7,0-1.4,0.6-1.5,1.5
		C31.9,76.3,33,76,33,75.3z"/>
	<path d="M34.1,76.7c0-1.4,0.9-2.3,2-2.3c0.6,0,1.1,0.4,1.3,0.9l0.1-0.8h0.5l-0.5,3.1c0,0.3,0,0.4,0.3,0.4c0.2,0,0.4-0.1,0.5-0.1
		l-0.1,0.4c-0.2,0.1-0.4,0.1-0.6,0.1c-0.5,0-0.7-0.3-0.7-0.7c-0.3,0.5-0.8,0.8-1.4,0.8C34.7,78.4,34.1,77.8,34.1,76.7z M37.2,76.1
		c0-0.7-0.4-1.3-1.1-1.3c-0.9,0-1.5,0.8-1.5,1.8c0,0.8,0.4,1.3,1.1,1.3C36.6,78,37.2,77.1,37.2,76.1z"/>
	<path d="M39.2,77.3l0.4-2.4H39l0.1-0.4h0.6l0.2-1h0.5l-0.2,1h1.2l-0.1,0.4h-1.2l-0.4,2.4c-0.1,0.5,0.1,0.7,0.5,0.7
		c0.3,0,0.6-0.1,0.8-0.2L41,78.2c-0.2,0.1-0.5,0.2-0.9,0.2C39.7,78.4,39,78.2,39.2,77.3z"/>
	<path d="M41.9,77.5l0.5-2.6h-0.7l0.1-0.4H43l-0.5,3.1c0,0.3,0,0.4,0.3,0.4c0.2,0,0.4-0.1,0.5-0.1l-0.1,0.4
		c-0.2,0.1-0.4,0.1-0.6,0.1C42,78.4,41.9,78,41.9,77.5z M42.5,73.1c0-0.2,0.2-0.4,0.4-0.4s0.4,0.2,0.4,0.4s-0.2,0.4-0.4,0.4
		S42.5,73.3,42.5,73.1z"/>
	<path d="M44.4,74.9h-0.7l0.1-0.4h1l0.5,3.3c0.9-1,1.7-2.1,1.7-2.7c0-0.2-0.1-0.2-0.2-0.2c-0.2,0-0.4,0.1-0.6,0.2l-0.2-0.3
		c0.3-0.2,0.6-0.4,0.9-0.4c0.5,0,0.6,0.4,0.6,0.6c0,0.8-1,2.1-2.1,3.3H45L44.4,74.9z"/>
	<path d="M48,76.7c0-1.3,1-2.3,2.1-2.3c0.7,0,1.1,0.4,1.1,0.9c0,1-1.4,1.4-2.7,1.4c0,0.8,0.4,1.3,1.2,1.3c0.5,0,0.9-0.1,1.2-0.3
		l-0.1,0.5c-0.3,0.2-0.7,0.3-1.2,0.3C48.7,78.4,48,77.8,48,76.7z M50.7,75.3c0-0.3-0.2-0.5-0.6-0.5c-0.7,0-1.4,0.6-1.5,1.5
		C49.6,76.3,50.7,76,50.7,75.3z"/>
	<path d="M53.6,77.8h0.9l0.8-4.6h-0.9l0.1-0.4h2.4c1.4,0,2.5,0.7,2.5,2.4c0,1.9-1.4,3.1-3.3,3.1h-2.5L53.6,77.8z M56,77.8
		c1.6,0,2.8-1.1,2.8-2.7c0-1.2-0.7-1.9-2-1.9h-1L55,77.8H56z"/>
	<path d="M60.1,77.5l0.5-2.6h-0.7l0.1-0.4h1.2l-0.5,3.1c0,0.3,0,0.4,0.3,0.4c0.2,0,0.4-0.1,0.5-0.1l-0.1,0.4
		c-0.2,0.1-0.4,0.1-0.6,0.1C60.2,78.4,60.1,78,60.1,77.5z M60.7,73.1c0-0.2,0.2-0.4,0.4-0.4s0.4,0.2,0.4,0.4s-0.2,0.4-0.4,0.4
		S60.7,73.3,60.7,73.1z"/>
	<path d="M62.8,74.9h-0.7l0.1-0.4h1.2l-0.1,0.8c0.4-0.4,0.9-0.9,1.5-0.9c0.4,0,0.6,0.2,0.6,0.6c0,0.2,0,0.4-0.1,0.6l-0.5,0
		c0-0.1,0.1-0.3,0.1-0.4c0-0.2-0.1-0.2-0.2-0.2c-0.5,0-1.2,0.7-1.4,0.9l-0.4,2.5h-0.5L62.8,74.9z"/>
	<path d="M65.5,76.7c0-1.3,1-2.3,2.1-2.3c0.7,0,1.1,0.4,1.1,0.9c0,1-1.4,1.4-2.7,1.4c0,0.8,0.4,1.3,1.2,1.3c0.5,0,0.9-0.1,1.2-0.3
		l-0.1,0.5c-0.3,0.2-0.7,0.3-1.2,0.3C66.2,78.4,65.5,77.8,65.5,76.7z M68.2,75.3c0-0.3-0.2-0.5-0.6-0.5c-0.7,0-1.4,0.6-1.5,1.5
		C67.1,76.3,68.2,76,68.2,75.3z"/>
	<path d="M69.3,76.7c0-1.2,0.8-2.3,2.2-2.3c0.4,0,0.9,0.1,1.1,0.3L72.5,75c-0.3-0.1-0.6-0.2-1-0.2c-1.1,0-1.6,0.9-1.6,1.8
		c0,0.8,0.4,1.3,1.2,1.3c0.4,0,0.8-0.1,1.1-0.2l-0.1,0.4c-0.3,0.1-0.7,0.2-1.1,0.2C69.9,78.4,69.3,77.8,69.3,76.7z"/>
	<path d="M73.2,77.3l0.4-2.4H73l0.1-0.4h0.6l0.2-1h0.5l-0.2,1h1.2l-0.1,0.4h-1.2l-0.4,2.4c-0.1,0.5,0.1,0.7,0.5,0.7
		c0.3,0,0.6-0.1,0.8-0.2L75,78.2c-0.2,0.1-0.5,0.2-0.9,0.2C73.7,78.4,73.1,78.2,73.2,77.3z"/>
	<path d="M75.7,76.7c0-1.3,0.9-2.3,2.2-2.3c1,0,1.6,0.6,1.6,1.7c0,1.3-0.9,2.3-2.1,2.3C76.3,78.4,75.7,77.8,75.7,76.7z M78.9,76.1
		c0-0.8-0.4-1.3-1.1-1.3c-0.9,0-1.6,0.8-1.6,1.9c0,0.8,0.4,1.3,1.1,1.3C78.2,78,78.9,77.1,78.9,76.1z"/>
	<path d="M80.9,74.9h-0.7l0.1-0.4h1.2l-0.1,0.8c0.4-0.4,0.9-0.9,1.5-0.9c0.4,0,0.6,0.2,0.6,0.6c0,0.2,0,0.4-0.1,0.6l-0.5,0
		c0-0.1,0.1-0.3,0.1-0.4c0-0.2-0.1-0.2-0.2-0.2c-0.5,0-1.2,0.7-1.4,0.9l-0.4,2.5h-0.5L80.9,74.9z"/>
</g>
<line class="st2" x1="7.4" y1="9.6" x2="10.1" y2="6.9"/>
<line class="st2" x1="7.4" y1="9" x2="10.1" y2="11.7"/>
<line class="st2" x1="7.4" y1="75.6" x2="10.1" y2="72.8"/>
<line class="st2" x1="7.4" y1="74.9" x2="10.1" y2="77.6"/>
<line class="st2" x1="7.4" y1="94" x2="10.1" y2="91.3"/>
<line class="st2" x1="7.4" y1="93.3" x2="10.1" y2="96"/>
<line class="st2" x1="7.4" y1="117.4" x2="10.1" y2="114.7"/>
<line class="st2" x1="7.4" y1="116.7" x2="10.1" y2="119.4"/>
<line class="st2" x1="7.4" y1="343.4" x2="10.1" y2="340.7"/>
<line class="st2" x1="7.4" y1="342.8" x2="10.1" y2="345.5"/>
<line class="st2" x1="7.4" y1="425.6" x2="10.1" y2="422.9"/>
<line class="st2" x1="7.4" y1="425" x2="10.1" y2="427.7"/>
<line class="st2" x1="7.4" y1="213.7" x2="10.1" y2="211"/>
<line class="st2" x1="7.4" y1="213.1" x2="10.1" y2="215.8"/>
<path class="st3" d="M0,3.3h2.8 M0,6.2h4.3 M0,9h2.8 M0,11.8h4.3 M0,14.7h2.8 M0,17.5h4.3 M0,20.3h2.8 M0,23.2h4.3 M0,26h2.8
	 M0,28.8h4.3 M0,31.7h2.8 M0,34.5h4.3 M0,37.4h2.8 M0,40.2h4.3 M0,43h2.8 M0,45.9h4.3 M0,48.7h2.8 M0,51.5h4.3 M0,54.4h2.8 M0,57.2
	h4.3 M0,60h2.8 M0,62.9h4.3 M0,65.7h2.8 M0,68.5h4.3 M0,71.4h2.8 M0,74.2h4.3 M0,77h2.8 M0,79.9h4.3 M0,82.7h2.8 M0,85.5h4.3
	 M0,88.4h2.8 M0,91.2h4.3 M0,94h2.8 M0,96.9h4.3 M0,99.7h2.8 M0,102.5h4.3 M0,105.4h2.8 M0,108.2h4.3 M0,111.1h2.8 M0,113.9h4.3
	 M0,116.7h2.8 M0,119.6h4.3 M0,122.4h2.8 M0,125.2h4.3 M0,128.1h2.8 M0,130.9h4.3 M0,133.7h2.8 M0,136.6h4.3 M0,139.4h2.8 M0,142.2
	h4.3 M0,145.1h2.8 M0,147.9h4.3 M0,150.7h2.8 M0,153.6h4.3 M0,156.4h2.8 M0,159.2h4.3 M0,162.1h2.8 M0,164.9h4.3 M0,167.7h2.8
	 M0,170.6h4.3 M0,173.4h2.8 M0,176.2h4.3 M0,179.1h2.8 M0,181.9h4.3 M0,184.8h2.8 M0,187.6h4.3 M0,190.4h2.8 M0,193.3h4.3 M0,196.1
	h2.8 M0,198.9h4.3 M0,201.8h2.8 M0,204.6h4.3 M0,207.4h2.8 M0,210.3h4.3 M0,213.1h2.8 M0,215.9h4.3 M0,218.8h2.8 M0,221.6h4.3
	 M0,224.4h2.8 M0,227.3h4.3 M0,230.1h2.8 M0,232.9h4.3 M0,235.8h2.8 M0,238.6h4.3 M0,241.4h2.8 M0,244.3h4.3 M0,247.1h2.8 M0,249.9
	h4.3 M0,252.8h2.8 M0,255.6h4.3 M0,258.5h2.8 M0,261.3h4.3 M0,264.1h2.8 M0,267h4.3 M0,269.8h2.8 M0,272.6h4.3 M0,275.5h2.8
	 M0,278.3h4.3 M0,281.1h2.8 M0,284h4.3 M0,286.8h2.8 M0,289.6h4.3 M0,292.5h2.8 M0,295.3h4.3 M0,298.1h2.8 M0,301h4.3 M0,303.8h2.8
	 M0,306.6h4.3 M0,309.5h2.8 M0,312.3h4.3 M0,315.1h2.8 M0,318h4.3 M0,320.8h2.8 M0,323.6h4.3 M0,326.5h2.8 M0,329.3h4.3 M0,332.2
	h2.8 M0,335h4.3 M0,337.8h2.8 M0,340.7h4.3 M0,343.5h2.8 M0,346.3h4.3 M0,349.2h2.8 M0,352h4.3 M0,354.8h2.8 M0,357.7h4.3 M0,360.5
	h2.8 M0,363.3h4.3 M0,366.2h2.8 M0,369h4.3 M0,371.8h2.8 M0,374.7h4.3 M0,377.5h2.8 M0,380.3h4.3 M0,383.2h2.8 M0,386h4.3 M0,388.8
	h2.8 M0,391.7h4.3 M0,394.5h2.8 M0,397.4h4.3 M0,400.2h2.8 M0,403h4.3 M0,405.9h2.8 M0,408.7h4.3 M0,411.5h2.8 M0,414.4h4.3
	 M0,417.2h2.8 M0,420h4.3 M0,422.9h2.8 M0,425.7h4.3 M0,428.5h2.8 M0,431.4h4.3 M0,434.2h2.8 M0,437h4.3 M0,439.9h2.8 M0,442.7h4.3
	 M0,445.5h2.8 M0,448.4h4.3 M0,451.2h2.8 M0,454h4.3 M0,456.9h2.8 M0,459.7h4.3 M0,462.5h2.8 M0,465.4h4.3 M0,468.2h2.8"/>
</svg>
